HIERARCHY
ROOT hip
{
  OFFSET 0 0 0
  CHANNELS 6 Xposition Yposition Zposition Zrotation Yrotation Xrotation
  JOINT abdomen
  {
    OFFSET 0 20.6881 -0.73152
    CHANNELS 3 Zrotation Xrotation Yrotation
    JOINT chest
    {
      OFFSET 0 11.7043 -0.48768
      CHANNELS 3 Zrotation Xrotation Yrotation
      JOINT neck
      {
        OFFSET 0 22.1894 -2.19456
        CHANNELS 3 Zrotation Xrotation Yrotation
        JOINT head
        {
          OFFSET -0.24384 7.07133 1.2192
          CHANNELS 3 Zrotation Xrotation Yrotation
          JOINT leftEye
          {
            OFFSET 4.14528 8.04674 8.04672
            CHANNELS 3 Zrotation Xrotation Yrotation
            End Site
            {
              OFFSET 1 0 0
            }
          }
          JOINT rightEye
          {
            OFFSET -3.6576 8.04674 8.04672
            CHANNELS 3 Zrotation Xrotation Yrotation
            End Site
            {
              OFFSET 1 0 0
            }
          }
        }
      }
      JOINT rCollar
      {
        OFFSET -2.68224 19.2634 -4.8768
        CHANNELS 3 Zrotation Xrotation Yrotation
        JOINT rShldr
        {
          OFFSET -8.77824 -1.95073 1.46304
          CHANNELS 3 Zrotation Xrotation Yrotation
          JOINT rForeArm
          {
            OFFSET -28.1742 -1.7115 0.48768
            CHANNELS 3 Zrotation Xrotation Yrotation
            JOINT rHand
            {
              OFFSET -22.5879 0.773209 7.07136
              CHANNELS 3 Zrotation Xrotation Yrotation
              JOINT rThumb1
              {
                OFFSET -1.2192 -0.487915 3.41376
                CHANNELS 3 Zrotation Xrotation Yrotation
                JOINT rThumb2
                {
                  OFFSET -3.37035 -0.52449 3.41376
                  CHANNELS 3 Zrotation Xrotation Yrotation
                  End Site
                  {
                    OFFSET -1.78271 -1.18214 1.43049
                  }
                }
              }
              JOINT rIndex1
              {
                OFFSET -7.75947 0.938293 5.60832
                CHANNELS 3 Zrotation Xrotation Yrotation
                JOINT rIndex2
                {
                  OFFSET -2.54057 -0.884171 1.56538
                  CHANNELS 3 Zrotation Xrotation Yrotation
                  End Site
                  {
                    OFFSET -1.62519 -0.234802 1.16502
                  }
                }
              }
              JOINT rMid1
              {
                OFFSET -8.24714 1.18213 3.41376
                CHANNELS 3 Zrotation Xrotation Yrotation
                JOINT rMid2
                {
                  OFFSET -3.10165 -0.590103 1.0647
                  CHANNELS 3 Zrotation Xrotation Yrotation
                  End Site
                  {
                    OFFSET -2.48547 -0.328903 0.83742
                  }
                }
              }
              JOINT rRing1
              {
                OFFSET -8.82822 0.546677 1.51678
                CHANNELS 3 Zrotation Xrotation Yrotation
                JOINT rRing2
                {
                  OFFSET -2.60934 -0.819778 -0.0198488
                  CHANNELS 3 Zrotation Xrotation Yrotation
                  End Site
                  {
                    OFFSET -2.33842 -0.294052 0.168128
                  }
                }
              }
              JOINT rPinky1
              {
                OFFSET -8.27202 -0.0477905 -0.4584
                CHANNELS 3 Zrotation Xrotation Yrotation
                JOINT rPinky2
                {
                  OFFSET -1.82734 -0.647385 -0.700984
                  CHANNELS 3 Zrotation Xrotation Yrotation
                  End Site
                  {
                    OFFSET -1.69225 -0.51767 -0.607171
                  }
                }
              }
            }
          }
        }
      }
      JOINT lCollar
      {
        OFFSET 2.68224 19.2634 -4.8768
        CHANNELS 3 Zrotation Xrotation Yrotation
        JOINT lShldr
        {
          OFFSET 8.77824 -1.95073 1.46304
          CHANNELS 3 Zrotation Xrotation Yrotation
          JOINT lForeArm
          {
            OFFSET 28.1742 -1.7115 0.48768
            CHANNELS 3 Zrotation Xrotation Yrotation
            JOINT lHand
            {
              OFFSET 22.5879 0.773209 7.07136
              CHANNELS 3 Zrotation Xrotation Yrotation
              JOINT lThumb1
              {
                OFFSET 1.2192 -0.487915 3.41376
                CHANNELS 3 Zrotation Xrotation Yrotation
                JOINT lThumb2
                {
                  OFFSET 3.37035 -0.52449 3.41376
                  CHANNELS 3 Zrotation Xrotation Yrotation
                  End Site
                  {
                    OFFSET 1.78271 -1.18214 1.43049
                  }
                }
              }
              JOINT lIndex1
              {
                OFFSET 7.75947 0.938293 5.60832
                CHANNELS 3 Zrotation Xrotation Yrotation
                JOINT lIndex2
                {
                  OFFSET 2.54057 -0.884171 1.56538
                  CHANNELS 3 Zrotation Xrotation Yrotation
                  End Site
                  {
                    OFFSET 1.62519 -0.234802 1.16502
                  }
                }
              }
              JOINT lMid1
              {
                OFFSET 8.24714 1.18213 3.41376
                CHANNELS 3 Zrotation Xrotation Yrotation
                JOINT lMid2
                {
                  OFFSET 3.10165 -0.590103 1.0647
                  CHANNELS 3 Zrotation Xrotation Yrotation
                  End Site
                  {
                    OFFSET 2.48547 -0.328903 0.83742
                  }
                }
              }
              JOINT lRing1
              {
                OFFSET 8.82822 0.546677 1.51678
                CHANNELS 3 Zrotation Xrotation Yrotation
                JOINT lRing2
                {
                  OFFSET 2.60934 -0.819778 -0.0198488
                  CHANNELS 3 Zrotation Xrotation Yrotation
                  End Site
                  {
                    OFFSET 2.33842 -0.294052 0.168128
                  }
                }
              }
              JOINT lPinky1
              {
                OFFSET 8.27202 -0.0477905 -0.4584
                CHANNELS 3 Zrotation Xrotation Yrotation
                JOINT lPinky2
                {
                  OFFSET 1.82734 -0.647385 -0.700984
                  CHANNELS 3 Zrotation Xrotation Yrotation
                  End Site
                  {
                    OFFSET 1.69225 -0.51767 -0.607171
                  }
                }
              }
            }
          }
        }
      }
    }
  }
  JOINT rButtock
  {
    OFFSET -8.77824 4.35084 1.2192
    CHANNELS 3 Zrotation Xrotation Yrotation
    JOINT rThigh
    {
      OFFSET 0 -1.70687 -2.19456
      CHANNELS 3 Zrotation Xrotation Yrotation
      JOINT rShin
      {
        OFFSET 0 -36.8199 0.73152
        CHANNELS 3 Zrotation Xrotation Yrotation
        JOINT rFoot
        {
          OFFSET 0.73152 -45.1104 -5.12064
          CHANNELS 3 Zrotation Xrotation Yrotation
          End Site
          {
            OFFSET -1.1221 -3.69964 12.103
          }
        }
      }
    }
  }
  JOINT lButtock
  {
    OFFSET 8.77824 4.35084 1.2192
    CHANNELS 3 Zrotation Xrotation Yrotation
    JOINT lThigh
    {
      OFFSET 0 -1.70687 -2.19456
      CHANNELS 3 Zrotation Xrotation Yrotation
      JOINT lShin
      {
        OFFSET 0 -36.8199 0.73152
        CHANNELS 3 Zrotation Xrotation Yrotation
        JOINT lFoot
        {
          OFFSET -0.73152 -45.1104 -5.12064
          CHANNELS 3 Zrotation Xrotation Yrotation
          End Site
          {
            OFFSET 1.1221 -3.69964 12.103
          }
        }
      }
    }
  }
}
MOTION
Frames:	7
Frame Time:	0.03333
0.0 0.0 0.0 0.0 0.0 0.0 0.0 0.0 0.0 0.0 0.0 0.0 0.0 0.0 0.0 0.0 0.0 0.0 0.0 0.0 0.0 0.0 0.0 0.0 0.0 0.0 0.0 0.0 0.0 0.0 0.0 0.0 0.0 0.0 0.0 0.0 0.0 0.0 0.0 0.0 0.0 0.0 0.0 0.0 0.0 0.0 0.0 0.0 0.0 0.0 0.0 0.0 0.0 0.0 0.0 0.0 0.0 0.0 0.0 0.0 0.0 0.0 0.0 0.0 0.0 0.0 0.0 0.0 0.0 0.0 0.0 0.0 0.0 0.0 0.0 0.0 0.0 0.0 0.0 0.0 0.0 0.0 0.0 0.0 0.0 0.0 0.0 0.0 0.0 0.0 0.0 0.0 0.0 0.0 0.0 0.0 0.0 0.0 0.0 0.0 0.0 0.0 0.0 0.0 0.0 0.0 0.0 0.0 0.0 0.0 0.0 0.0 0.0 0.0 0.0 0.0 0.0 0.0 0.0 0.0 0.0 0.0 0.0 0.0 0.0 0.0 0.0 0.0 0.0 0.0 0.0 0.0
0.1711 68.0503 -0.15039999999999998 -0.059269 -10.099332 -0.401916 -1.653642 -0.312715 104.398807 -1.009301 9.225394 8.004684 -13.997648 -10.657526 -83.997959 44.435183 41.753837 110.350819 128.854241 6.78173 -14.116496 58.592162 3.646278 6.493866 -75.352159 -46.601644 178.194138 -156.770978 -7.615891 176.499225 -164.459947 -79.736722 -13.843416 6.643146 -6.82294 -2.857417 -84.336499 61.087509 36.681033 179.478887 -60.445898 88.02736 -112.054367 36.730655 -4.419348 -25.760954 3.263824 99.700758 8.089525 30.392342 -39.892589 -169.96332 38.813906 71.733251 73.342433 -7.447084 42.699218 21.147718 33.594262 -155.261275 46.033974 -10.147989 -137.790191 -54.729086 39.515616 159.959855 75.544123 2.314982 -157.820292 -11.419305 0.43562 -5.276183 178.409335 -0.815665 24.976073 -62.643775 -70.46091 -49.146426 10.94707 -10.064553 30.58208 -179.052158 22.273726 46.522035 -90.083217 14.667815 -162.32841 14.450931 -1.730506 93.998379 4.118776 -30.283876 3.70252 90.510123 79.249132 -84.864059 82.145623 43.034549 130.271577 -80.156787 -16.030854 -137.961775 -18.069502 -72.546183 175.45932 -27.025377 -67.682956 -84.670724 -28.59756 52.742945 -138.837179 7.71669 58.150513 32.150437 -4.283588 1.658414 -112.225662 -58.242108 63.953907 68.39312 52.46016 -17.135155 71.253556 -7.8278 55.515766 6.377142 -5.265386 -3.670166 -69.552585 70.968921 -1.593826 -98.421683
-1.4988 69.4766 -1.9356000000000002 -8.296358 -42.597529 14.654672 -1.441145 -0.70392 -63.972375 20.876667 -5.40683 66.482149 -13.402016 8.983414 -58.378799 33.166803 4.689526 55.5253 -4.882842 0.169713 -3.978857 -41.769666 22.288098 -54.612599 -2.718201 -26.724088 -7.822642 -0.616413 13.6929 9.500951 89.919242 -15.61352 83.172238 -73.744441 71.339994 47.446595 9.2653 -25.51459 2.096071 88.363001 -84.052037 50.204773 -135.285247 -54.2415 164.094078 -168.590513 -58.446381 81.941689 -10.530026 12.009796 -25.735672 12.650704 -1.25225 55.119706 -93.599805 54.793328 89.181932 58.401908 27.168238 -15.314288 -44.377991 4.253889 9.778313 -65.811051 2.255194 -166.544615 -2.582688 -7.959293 -0.401161 172.104123 63.719534 179.169866 -116.784232 -17.389441 -179.092047 45.003742 70.808999 -31.445195 16.886511 -6.635754 13.726533 98.559675 -16.626236 -108.731529 88.045125 76.020838 -73.677786 7.660593 -41.809452 -7.339095 145.770404 16.378355 -136.535573 1.507951 48.52521 -16.635726 -171.260263 1.7438 179.625174 26.923654 24.223731 -8.52266 12.018765 -1.504449 -26.535533 -96.679384 34.275966 32.28007 16.380605 -3.529866 26.807315 -45.748809 -16.589688 -180.0 -71.324494 -29.238539 -168.355214 -95.367738 -64.091338 -167.446201 -0.004433 -0.03582 -7.054783 24.570589 -41.124731 180.0 68.316165 -46.467984 159.308798 53.699427 -45.547299 117.871386
-3.1795999999999998 67.5471 -1.8064 -14.159232 -41.815162 14.891122 6.286137 -4.296732 55.778721 -11.275599 -1.125751 -44.376774 11.897272 12.155221 106.242295 -30.969019 8.725479 -111.259861 12.204696 1.26319 11.774251 18.029697 5.484997 33.601936 -77.042334 -81.081078 -97.344439 55.159717 -57.749117 45.853171 -126.710444 7.097831 -170.749764 9.410718 -57.296951 -5.88379 142.802381 -54.703078 40.684138 29.45159 -36.622546 57.4752 -142.893783 3.169624 118.274617 -60.311884 21.063355 9.443563 -47.680149 -81.516207 -81.961857 -75.024691 56.024021 85.268471 -53.561307 -70.973062 -91.647621 -111.595363 1.944398 148.064307 -96.246077 -72.017495 -69.068879 76.43016 10.859876 -64.37639 26.395694 35.111971 -34.177005 -19.419614 15.050358 6.378507 -48.958007 -64.14488 -97.56038 7.125032 32.958343 14.055333 77.687515 62.332851 -31.665197 -164.785571 37.408621 -29.717315 164.135156 -36.787451 -123.611319 123.718985 -66.448772 156.893902 45.495361 50.586378 -27.458864 69.368352 40.180236 -62.680907 120.504147 -84.510212 105.818403 -121.492757 -7.060327 115.545806 28.232619 -43.882326 -47.820751 -22.760792 -23.177483 49.787629 -95.815092 66.635632 -48.307003 111.971858 24.223455 -99.399286 -51.862499 -45.754923 14.365415 147.2684 42.493653 -59.713402 66.797312 48.113437 41.414365 -91.409691 -10.886159 -180.0 -35.291806 -46.153207 123.600186 -154.454148 -25.77445 -15.702922
-3.3547000000000002 67.7463 -0.6341 -8.274878 -38.231604 10.741065 -3.10823 -0.113194 -0.135784 -1.195595 -17.883057 2.796836 -1.417102 13.418088 -113.194863 24.081824 12.616941 102.631546 28.875333 -1.654936 -6.421718 37.830269 -0.04471 -0.130476 -17.426276 33.533825 13.736135 -11.229002 0.34813 -3.637041 -122.6924 77.033185 29.833371 178.287464 -16.063942 141.23891 -74.403354 28.300628 54.169778 52.826199 11.322959 19.673667 -155.791399 -3.338104 139.379618 -131.322251 -56.223745 -150.183923 -129.48573 -62.324576 172.873714 9.316795 1.521751 11.408349 3.775144 -13.812626 0.631858 -66.209221 -58.090133 -110.94017 -167.012735 20.329291 -112.444443 31.463258 29.336826 -85.248295 30.116997 -86.709766 54.308361 152.954107 40.934551 -156.825537 -38.814717 -52.818067 -76.900915 6.802198 34.847089 18.79253 172.641047 -5.360822 -91.757833 168.544948 -59.14301 126.601981 68.281277 29.015567 -71.595673 45.060506 59.621544 -45.282075 66.046963 47.401032 -30.008092 26.052418 32.398886 -87.711483 43.216713 -22.447732 17.010374 -104.233977 20.908089 27.389876 -161.169095 -0.048721 148.468779 152.492733 -16.175368 77.617239 68.884806 55.040742 47.635874 -114.086886 34.585905 -50.480595 19.713943 49.712589 -26.590741 106.687402 -34.567178 -15.954707 -11.362855 83.018591 -180.0 -124.655378 65.11767 -126.386376 -34.336062 -13.119487 61.570562 -125.813736 -56.94549 -10.727563
-2.461 71.24549999999999 0.8586 -3.92904 -32.096785 7.203516 1.002173 1.761751 150.360214 -1.975854 21.080291 -156.635242 -7.706652 11.657598 -63.574123 23.006345 -1.161831 57.502862 14.021804 5.695111 44.043219 58.248731 -3.158225 -5.665352 -176.657522 -50.349746 152.239721 -114.89537 23.989666 140.840738 160.768354 46.423794 85.584919 -163.846621 27.39136 129.154979 -65.62306 42.654454 51.322116 -38.671216 -18.108887 58.141585 -152.022276 12.956347 132.459371 -28.177415 80.261588 -14.282434 -15.039538 61.292427 20.355695 -2.636393 -40.206119 -4.503868 0.827255 -1.134589 8.195139 154.75046 59.586364 -137.39228 -35.019346 -45.565692 -4.080229 24.738409 -17.912297 -8.213764 148.068644 -5.861354 -174.777545 -23.065306 -9.402709 -9.240468 -6.542202 4.738619 85.456819 -156.548594 -16.552572 -129.733105 78.594357 55.446985 -35.495834 -39.87611 -33.160206 -76.783872 132.727396 -20.776624 -117.914778 178.420348 -35.298771 -92.465623 -74.496851 -87.068577 -79.996766 -4.266218 81.040651 -1.118521 155.658909 12.543172 -173.934016 -90.797867 83.862173 104.544685 32.132677 -15.237948 1.147348 109.804153 33.311435 -168.925554 7.588587 -12.000206 32.650516 -34.608887 -4.412904 -83.637852 -47.863778 63.622425 174.659021 -26.58453 -45.144719 -150.154111 -59.495882 -1.504824 -84.971689 38.81559 58.146864 -33.946501 -26.768416 -15.805132 106.116306 134.688817 -20.917289 -18.841524
-1.3333 72.0693 1.9339 -3.630679 -31.899395 6.951926 0.677372 2.14322 117.547898 -14.317894 18.186525 -122.173151 -7.053316 24.498242 -128.633798 18.615591 31.651404 130.057797 -41.036095 -8.649249 22.84761 46.741073 -5.02969 -11.606968 -19.778497 30.393467 24.070732 83.838712 83.600463 -112.697929 2.437592 2.52295 -107.41548 179.668289 0.937701 127.68434 7.206137 -13.161055 7.67041 14.496302 -1.408333 -26.288118 -152.602336 -24.826902 144.59446 71.530769 20.811889 -73.277444 -146.779917 37.322216 132.773644 -157.190635 72.707728 134.961504 -156.738494 -13.293689 145.514372 -145.481013 18.203703 150.065094 -40.386634 46.818683 70.590365 -148.210949 4.175407 -164.70723 149.029197 -25.422602 -179.80624 -178.818683 -64.179802 -151.742756 -84.9066 82.34203 164.886315 -156.627579 -17.477979 -140.182131 -112.174474 -73.260463 -45.528495 119.263329 -44.462209 -115.128325 7.254879 15.894899 1.699672 55.879173 45.376212 -60.859467 178.045849 -3.193295 -152.649145 32.656126 74.421349 -24.719073 1.416099 -3.512949 -12.756802 -0.079011 68.706444 11.626087 32.522241 -45.941905 -4.351075 -98.913766 59.091676 43.222924 -5.465717 -9.922166 6.014933 -14.114924 -27.010813 88.822266 72.391775 -45.794832 -23.26212 -111.884393 25.693594 74.108332 -7.931112 -36.407746 3.533282 10.17002 17.201674 106.490939 36.714396 -1.006763 -83.779681 -83.534727 -11.792131 1.095624
